<svg id="visual" viewBox="0 0 960 540" width="960" height="540" xmlns="http://www.w3.org/2000/svg" xmlns:xlink="http://www.w3.org/1999/xlink" version="1.1"><path d="M0 331L22.8 342.2C45.7 353.3 91.3 375.7 137 377C182.7 378.3 228.3 358.7 274 349.7C319.7 340.7 365.3 342.3 411.2 346.8C457 351.3 503 358.7 548.8 364.8C594.7 371 640.3 376 686 375.3C731.7 374.7 777.3 368.3 823 367.8C868.7 367.3 914.3 372.7 937.2 375.3L960 378L960 541L937.2 541C914.3 541 868.7 541 823 541C777.3 541 731.7 541 686 541C640.3 541 594.7 541 548.8 541C503 541 457 541 411.2 541C365.3 541 319.7 541 274 541C228.3 541 182.7 541 137 541C91.3 541 45.7 541 22.8 541L0 541Z" fill="#fc7a71"></path><path d="M0 378L22.8 380.8C45.7 383.7 91.3 389.3 137 389.2C182.7 389 228.3 383 274 386C319.7 389 365.3 401 411.2 398.8C457 396.7 503 380.3 548.8 374.7C594.7 369 640.3 374 686 377.8C731.7 381.7 777.3 384.3 823 382C868.7 379.7 914.3 372.3 937.2 368.7L960 365L960 541L937.2 541C914.3 541 868.7 541 823 541C777.3 541 731.7 541 686 541C640.3 541 594.7 541 548.8 541C503 541 457 541 411.2 541C365.3 541 319.7 541 274 541C228.3 541 182.7 541 137 541C91.3 541 45.7 541 22.8 541L0 541Z" fill="#ff886a"></path><path d="M0 402L22.8 401.5C45.7 401 91.3 400 137 409.3C182.7 418.7 228.3 438.3 274 447C319.7 455.7 365.3 453.3 411.2 446.5C457 439.7 503 428.3 548.8 419.7C594.7 411 640.3 405 686 405.3C731.7 405.7 777.3 412.3 823 419.7C868.7 427 914.3 435 937.2 439L960 443L960 541L937.2 541C914.3 541 868.7 541 823 541C777.3 541 731.7 541 686 541C640.3 541 594.7 541 548.8 541C503 541 457 541 411.2 541C365.3 541 319.7 541 274 541C228.3 541 182.7 541 137 541C91.3 541 45.7 541 22.8 541L0 541Z" fill="#ff9766"></path><path d="M0 460L22.8 461.3C45.7 462.7 91.3 465.3 137 464.5C182.7 463.7 228.3 459.3 274 461.3C319.7 463.3 365.3 471.7 411.2 472.7C457 473.7 503 467.3 548.8 465C594.7 462.7 640.3 464.3 686 467.7C731.7 471 777.3 476 823 477C868.7 478 914.3 475 937.2 473.5L960 472L960 541L937.2 541C914.3 541 868.7 541 823 541C777.3 541 731.7 541 686 541C640.3 541 594.7 541 548.8 541C503 541 457 541 411.2 541C365.3 541 319.7 541 274 541C228.3 541 182.7 541 137 541C91.3 541 45.7 541 22.8 541L0 541Z" fill="#fea564"></path><path d="M0 491L22.8 491.8C45.7 492.7 91.3 494.3 137 494.2C182.7 494 228.3 492 274 490.2C319.7 488.3 365.3 486.7 411.2 484C457 481.3 503 477.7 548.8 481C594.7 484.3 640.3 494.7 686 499.8C731.7 505 777.3 505 823 505.5C868.7 506 914.3 507 937.2 507.5L960 508L960 541L937.2 541C914.3 541 868.7 541 823 541C777.3 541 731.7 541 686 541C640.3 541 594.7 541 548.8 541C503 541 457 541 411.2 541C365.3 541 319.7 541 274 541C228.3 541 182.7 541 137 541C91.3 541 45.7 541 22.8 541L0 541Z" fill="#fcb464"></path></svg>